<?xml version="1.0" encoding="UTF-8"?>
<!DOCTYPE svg PUBLIC "-//W3C//DTD SVG 1.1//EN" "http://www.w3.org/Graphics/SVG/1.1/DTD/svg11.dtd">
<!-- Creator: CorelDRAW -->
<svg xmlns="http://www.w3.org/2000/svg" xml:space="preserve" width="225mm" height="210mm" style="shape-rendering:geometricPrecision; text-rendering:geometricPrecision; image-rendering:optimizeQuality; fill-rule:evenodd; clip-rule:evenodd"
viewBox="0 0 22500 21000"
 xmlns:xlink="http://www.w3.org/1999/xlink">
 <defs>
  <style type="text/css">
   <![CDATA[
    .str0 {stroke:#1F1A17;stroke-width:7.62}
    .str1 {stroke:#141516;stroke-width:45.23}
    .fil0 {fill:none;fill-rule:nonzero}
    .fil3 {fill:#0093DD}
    .fil4 {fill:#84C225}
    .fil1 {fill:#DD137B}
    .fil5 {fill:#F8C300}
    .fil2 {fill:#1F1A17;fill-rule:nonzero}
    .fil6 {fill:white;fill-rule:nonzero}
   ]]>
  </style>
 </defs>
 <g id="Layer_x0020_1">
  <metadata id="CorelCorpID_0Corel-Layer"/>
  <g>
   
   <path class="fil5" d="M5307.11 8804.16l726.68 -196.63 427.46 0 17.1 769.43 -41.03 436.26 102.57 47.01 -25.64 72.65 -85.47 0 -145.31 517.13 89.75 132.48 141.03 -21.36 76.93 -491.49 115.39 -47.01c35.66,-184.27 42.74,-405.65 42.74,-598.33l1564.2 -68.38 935.96 -508.58 -51.29 -149.58 -115.39 -179.5c-42.33,-6.04 -75.44,-74.94 -89.75,-115.39 -17.55,-49.61 12.82,-124.16 12.82,-175.22 0,-66.28 20.28,-74.95 47.01,-136.76l94.03 -183.78 -8.55 -98.29 -98.3 -12.82 4.28 -94.03c-103.77,-23.94 -226.14,-29.91 -333.36,-29.91 -109.77,0 -307.14,-16.2 -406.01,-68.38l-234.63 -78.21 -585.93 -195.32 -183.77 273.53c-61.87,30.93 -179.74,-0.31 -239.34,-4.28 -62.71,-4.17 -133.01,-94.02 -192.32,-94.02 -39.54,0 -77.73,-26.45 -38.46,12.82 -15.45,-15.45 -34.75,-33.06 -55.56,-34.19 -8.39,-0.46 -17.24,0.6 -25.64,0 -19.57,-1.39 -49.94,-15.88 -64.11,-21.37 -10.46,-20.92 -14.04,-48.97 -21.37,-72.65 -6.42,-20.75 -17.96,-40.12 -25.64,-59.84 -3.23,-8.28 -2.8,-33.18 -4.27,-42.73 -5.01,-32.58 -23.56,-42.38 -51.29,-59.84 -68.35,0 -108.14,-26.29 -170.95,-29.91 -85.58,-4.93 -101.38,-91.38 -158.13,-111.12 -95.41,-33.18 -93.68,-281.29 -102.57,-376.09 -19.71,-19.71 -44.67,-33.04 -64.11,-47.01 -20.92,-15.04 -46.08,-19.55 -64.1,-34.19 -58.35,-47.41 -109.47,-46.04 -183.78,-64.11l-192.32 76.93 8.55 102.57 -68.38 42.74 4.28 128.21 -192.32 0 -68.38 -141.04 -166.68 0 0 111.12 -307.71 -29.91 -98.3 42.73 -42.74 76.93 -384.64 98.3 -803.47 -12.82 12.82 658.16 568.42 -29.92 12.82 773.55 94.02 183.78 269.25 -34.19 51.28 243.6 149.58 -4.27c16.09,45.58 17.1,52.2 17.1,94.02 0,11.18 3.36,37.1 0,47.01 -7.88,23.26 -19.15,43.9 -25.64,68.38 -5.11,19.26 -10.25,43.25 -25.65,55.56l536.54 3.89 119.69 -316.32z"/>
  </g>
 </g>
</svg>