<?xml version="1.0" encoding="UTF-8"?>
<!DOCTYPE svg PUBLIC "-//W3C//DTD SVG 1.1//EN" "http://www.w3.org/Graphics/SVG/1.1/DTD/svg11.dtd">
<!-- Creator: CorelDRAW -->
<svg xmlns="http://www.w3.org/2000/svg" xml:space="preserve" width="225mm" height="210mm" style="shape-rendering:geometricPrecision; text-rendering:geometricPrecision; image-rendering:optimizeQuality; fill-rule:evenodd; clip-rule:evenodd"
viewBox="0 0 22500 21000"
 xmlns:xlink="http://www.w3.org/1999/xlink">
 <defs>
  <style type="text/css">
   <![CDATA[
    .str0 {stroke:#1F1A17;stroke-width:7.62}
    .str1 {stroke:#141516;stroke-width:45.23}
    .fil0 {fill:none;fill-rule:nonzero}
    .fil3 {fill:#0093DD}
    .fil4 {fill:#84C225}
    .fil1 {fill:#DD137B}
    .fil5 {fill:#F8C300}
    .fil2 {fill:#1F1A17;fill-rule:nonzero}
    .fil6 {fill:white;fill-rule:nonzero}
   ]]>
  </style>
 </defs>
 <g id="Layer_x0020_1">
  <metadata id="CorelCorpID_0Corel-Layer"/>
  <g>
   
   <path class="fil3" d="M16720 11817.6l-55.56 491.49 -4.27 487.21 -8.55 119.66 1409.84 93.38 64.61 -50.64 0 -196.59 25.64 -205.14 -4.27 -192.32 209.41 -598.33 -25.64 -1128.28 -376.09 -209.41 119.67 -397.46 269.24 64.1 -906.04 -406 -209.41 -4.28 -252.16 -85.47 51.29 -119.67 213.69 -51.28 12.82 -123.94 -170.95 -141.04 72.65 -188.04 111.12 -29.92 145.31 -482.94 -235.06 -145.3 -115.39 8.54 -145.31 -76.92 -918.86 -589.78 -444.47 -273.53 -192.32 76.93 -111.12 -98.29 -170.95 8.54 -34.19 115.39 217.96 205.15 25.64 106.84 -89.75 47.01 -136.76 -64.11 -68.38 21.37 98.3 286.35 64.11 47.01 -64.11 230.78 85.48 76.93 -47.02 136.76 17.1 59.83 -34.19 132.49 -162.41 17.09 -34.99 -24.49 -50.48 161.25 619.7 132.49 286.34 572.69 68.38 311.98 -102.57 158.13 -111.12 132.49 80.84 173.56c8.11,-14.92 17.07,-29.33 26.01,-36.8 16.88,-14.12 89.76,-13.43 111.11,-4.27l94.03 -123.94 59.83 -17.1c54.73,91.22 60.99,81.2 158.13,81.2 34.51,0 144.84,-51.05 179.5,-68.38 29.69,-14.84 81.8,-47.01 115.39,-47.01 23.03,0 110,-17.46 123.94,-34.19l123.94 38.46 115.39 517.13 25.64 431.65 -128.21 252.15 8.55 418.83z"/>
  </g>
 </g>
</svg>