<?xml version="1.0" encoding="UTF-8"?>
<!DOCTYPE svg PUBLIC "-//W3C//DTD SVG 1.1//EN" "http://www.w3.org/Graphics/SVG/1.1/DTD/svg11.dtd">
<!-- Creator: CorelDRAW -->
<svg xmlns="http://www.w3.org/2000/svg" xml:space="preserve" width="225mm" height="210mm" style="shape-rendering:geometricPrecision; text-rendering:geometricPrecision; image-rendering:optimizeQuality; fill-rule:evenodd; clip-rule:evenodd"
viewBox="0 0 22500 21000"
 xmlns:xlink="http://www.w3.org/1999/xlink">
 <defs>
  <style type="text/css">
   <![CDATA[
    .str0 {stroke:#1F1A17;stroke-width:7.62}
    .str1 {stroke:#141516;stroke-width:45.23}
    .fil0 {fill:none;fill-rule:nonzero}
    .fil3 {fill:#0093DD}
    .fil4 {fill:#84C225}
    .fil1 {fill:#DD137B}
    .fil5 {fill:#F8C300}
    .fil2 {fill:#1F1A17;fill-rule:nonzero}
    .fil6 {fill:white;fill-rule:nonzero}
   ]]>
  </style>
 </defs>
 <g id="Layer_x0020_1">
  <metadata id="CorelCorpID_0Corel-Layer"/>
  <g>
   
   <path class="fil3" d="M10138.4 8898.63l-72.65 743.63 213.69 435.93 -8.55 209.41 68.38 123.94 341.9 -64.1 235.06 226.51 158.13 230.78 145.31 294.89 -123.94 217.96 -153.86 85.48 -106.84 256.42 34.19 68.38 55.56 34.19 217.96 -21.36 217.96 222.23 19.24 32.05 151.71 87.62 98.3 217.96 21.37 -311.99 -51.29 -440.19 98.3 -290.62 277.8 -504.31 -68.38 -491.48 -64.11 -226.51 123.94 -252.15 -72.65 -179.5 -492.22 -69.73 145.28 -1388.19 99.06 -589.22 -166.68 -4.27 13.4 -132.12 -214.27 -21.73 -474.39 -303.44 -76.93 -12.82c-78.04,-19.51 -121.27,-55.11 -196.49,-38.05 -11.96,2.71 -24.72,6.75 -38.56,12.4 -103.2,42.13 -171.35,117.62 -264.98,175.23 -164.3,101.1 -181.36,325 -196.59,512.85l98.3 153.86 -76.93 200.86 -333.36 260.7 -81.2 188.05 81.2 68.38 119.67 -153.86 341.9 -25.64 55.56 106.85 -98.3 354.72z"/>
  </g>
 </g>
</svg>