<?xml version="1.0" encoding="UTF-8"?>
<!DOCTYPE svg PUBLIC "-//W3C//DTD SVG 1.1//EN" "http://www.w3.org/Graphics/SVG/1.1/DTD/svg11.dtd">
<!-- Creator: CorelDRAW -->
<svg xmlns="http://www.w3.org/2000/svg" xml:space="preserve" width="225mm" height="210mm" style="shape-rendering:geometricPrecision; text-rendering:geometricPrecision; image-rendering:optimizeQuality; fill-rule:evenodd; clip-rule:evenodd"
viewBox="0 0 22500 21000"
 xmlns:xlink="http://www.w3.org/1999/xlink">
 <defs>
  <style type="text/css">
   <![CDATA[
    .str0 {stroke:#1F1A17;stroke-width:7.62}
    .str1 {stroke:#141516;stroke-width:45.23}
    .fil0 {fill:none;fill-rule:nonzero}
    .fil3 {fill:#0093DD}
    .fil4 {fill:#84C225}
    .fil1 {fill:#DD137B}
    .fil5 {fill:#F8C300}
    .fil2 {fill:#1F1A17;fill-rule:nonzero}
    .fil6 {fill:white;fill-rule:nonzero}
   ]]>
  </style>
 </defs>
 <g id="Layer_x0020_1">
  <metadata id="CorelCorpID_0Corel-Layer"/>
  <g>
   
   <path class="fil3" d="M13256.4 12060.2c-0.09,0.58 -0.43,0.96 0,0zm2369.53 -1823.86l111.12 -132.49 102.57 -158.13 -68.38 -311.98 -286.34 -572.69 -619.7 -132.49 50.48 -161.25 -93.22 -65.25 72.66 -128.22 -337.63 -68.38 -303.44 -81.2 -98.57 277.34 -410.36 -111.14 0 85.49 0 230.82 -222.28 427.46 94.04 222.28 -222.28 393.26 0 350.51 -281.86 733.87 278.01 52.67 94.02 -29.92 42.74 12.82c-9.27,52.53 -3.99,38.89 -17.1,68.38 -7.58,17.07 -7.57,11.85 -21.37,25.65 -5.65,5.65 -8.03,17.51 -12.82,21.37 -5.21,4.19 -10.05,-1.21 -17.09,8.54 -16.1,22.29 -12.82,36.7 -12.82,64.11l-4.28 128.21 -59.83 25.65 -34.19 217.96 55.56 76.93 -25.64 68.38 -76.93 42.73 -17.1 200.87c-21.45,30.23 -26.51,39.51 -27.5,41.7 0.24,-1.44 -1.01,-4.15 -19.51,9.59 -19.77,14.68 -35.67,29.55 -55.56,38.46 -31.12,13.94 -29.91,32.73 -29.91,64.11l-4.28 324.8 1957.29 282.38 572.8 85.49 21.36 -461.89 260.7 8.55c17.08,-3.2 34.65,-3.53 51.28,-8.55 16.72,-5.04 5.98,-36.78 4.28,-47.01l-115.4 -551.32c27.73,-72.1 47.01,-86.11 47.01,-162.4 0,-126.52 -25.82,-306.04 -162.4,-333.36l4.27 -350.44 -102.57 -508.58c5.55,-9.55 12.85,-25.1 21.01,-40.13l-80.84 -173.56z"/>
  </g>
 </g>
</svg>