<?xml version="1.0" encoding="UTF-8"?>
<!DOCTYPE svg PUBLIC "-//W3C//DTD SVG 1.1//EN" "http://www.w3.org/Graphics/SVG/1.1/DTD/svg11.dtd">
<!-- Creator: CorelDRAW -->
<svg xmlns="http://www.w3.org/2000/svg" xml:space="preserve" width="225mm" height="210mm" style="shape-rendering:geometricPrecision; text-rendering:geometricPrecision; image-rendering:optimizeQuality; fill-rule:evenodd; clip-rule:evenodd"
viewBox="0 0 22500 21000"
 xmlns:xlink="http://www.w3.org/1999/xlink">
 <defs>
  <style type="text/css">
   <![CDATA[
    .str0 {stroke:#1F1A17;stroke-width:7.62}
    .str1 {stroke:#141516;stroke-width:45.23}
    .fil0 {fill:none;fill-rule:nonzero}
    .fil3 {fill:#0093DD}
    .fil4 {fill:#84C225}
    .fil1 {fill:#DD137B}
    .fil5 {fill:#F8C300}
    .fil2 {fill:#1F1A17;fill-rule:nonzero}
    .fil6 {fill:white;fill-rule:nonzero}
   ]]>
  </style>
 </defs>
 <g id="Layer_x0020_1">
  <metadata id="CorelCorpID_0Corel-Layer"/>
  <g>
   
   <path class="fil3" d="M13236.9 12069.8c18.5,-13.74 19.75,-11.03 19.51,-9.59 0.99,-2.19 6.05,-11.47 27.5,-41.7l17.1 -200.87 76.93 -42.73 25.64 -68.38 -55.56 -76.93 34.19 -217.96 59.83 -25.65 4.28 -128.21c0,-27.41 -3.28,-41.82 12.82,-64.11 7.04,-9.75 11.88,-4.35 17.09,-8.54 4.79,-3.86 7.17,-15.72 12.82,-21.37 13.8,-13.8 13.79,-8.58 21.37,-25.65 13.11,-29.49 7.83,-15.85 17.1,-68.38l-42.74 -12.82 -94.02 29.92 -278.01 -52.67 -534.01 -101.19 -158.13 -217.96 34.19 -320.53 -76.93 -341.9 -42.74 -81.21 -136.76 -21.36 -81.2 64.1 -55.56 243.61 -153.85 4.27 68.38 491.48 -277.8 504.31 -98.3 290.62 51.29 440.19 -21.37 311.99 -98.3 -217.96 -151.71 -87.62 19.23 32.06 8.54 500.03 -59.83 123.94 -235.06 8.55 -183.77 81.2 -51.28 675.25 102.57 64.11 25.64 42.74 128.21 -51.29 72.66 94.03 162.4 47.01 -85.47 384.64 606.87 273.52 89.75 132.48 119.67 17.1 51.28 102.57 -8.55 -290.62 76.93 -346.17 -64.1 -461.57 4.27 -175.22 89.75 0 0 -333.36 59.83 -12.82 8.55 -85.47 170.95 25.64 -4.27 106.84c32.57,5.75 102.99,3.98 128.21,21.37 11.59,8 -2.18,8.55 17.09,8.55 20.92,0 36.98,12.82 59.84,12.82l102.57 0 -4.28 119.67 89.75 -8.55 183.78 68.38 0 51.28 -247.88 -25.64 4.27 64.11 277.8 34.19c46.41,-4.42 21.49,-7.52 38.46,17.09 6.57,9.53 0.04,18.79 8.55,25.65 13.54,10.91 56.17,4.93 59.83,-12.83 11.14,-54.02 -18.28,-89.93 -42.74,-128.21 -9.84,-15.41 -6.83,-101.39 -8.54,-119.66 0,-108.07 -9.58,-219.51 0,-324.81l-81.21 -47.01 4.28 -170.95 72.65 -38.47 4.28 -324.8c0,-31.38 -1.21,-50.17 29.91,-64.11 19.89,-8.91 35.79,-23.78 55.56,-38.46z"/>
  </g>
 </g>
</svg>